<svg id="Layer_1" data-name="Layer 1" xmlns="http://www.w3.org/2000/svg" viewBox="0 0 1159.05 411.77">
    <defs>
        <style>.cls-1{fill:#fff;}.cls-2{fill:none;stroke:#fff;stroke-miterlimit:10;}</style>
    </defs>
    <title>COMET_LightBG</title>
    <g id="Layer_6" data-name="Layer 6">
        <g id="_Group_" data-name="&lt;Group&gt;">
            <path class="cls-1"
                  d="M470.1,20.2V430.7H265.4v-9H413V388.8H265.4v-8.5H402.3V350.8l-44.1-44.1-14.8-14.8-99.6-99.6-2.5-2.5a20.62,20.62,0,0,1-4.8-13.3,22.09,22.09,0,0,1,1.5-7.8,43,43,0,0,1-18.2-35.1h9.4a33.67,33.67,0,0,0,14.3,27.5,33.06,33.06,0,0,0,19.3,6.1,34.06,34.06,0,0,0,11.6-2,33.2,33.2,0,0,0,12.5-8.2l6.6,6.6,14.7,14.7h49.4L367.9,168V140.4L282.4,55h-17V20.2Z"
                  transform="translate(-87.3 -18.93)"/>
            <polygon class="cls-1" points="194.3 59.17 201 75.67 183.9 69.27 177.9 52.97 194.3 59.17"/>
            <path class="cls-1"
                  d="M255.7,20c3.1,0,6.1.1,9.1.2-79.3,4.3-142.3,68.2-142.3,146.4,0,45,20.8,85.2,53.7,112.1l3.1,2.5a20.49,20.49,0,0,1,6.3,14.7c0,11.5-9.6,20.7-21.3,20.7a21.87,21.87,0,0,1-11.9-3.5.1.1,0,0,1-.1-.1c-.7-.5-1.4-1.1-2.1-1.6-.1,0-.1-.1-.2-.1-38.2-30-62.7-76-62.7-127.5C87.2,93.3,162.7,20,255.7,20Z"
                  transform="translate(-87.3 -18.93)"/>
            <path class="cls-1" d="M241.3,189.9l2.5,2.5A29.49,29.49,0,0,1,241.3,189.9Z"
                  transform="translate(-87.3 -18.93)"/>
        </g>
    </g>
    <g id="Layer_9" data-name="Layer 9">
        <g id="_5g6t9j.tif" data-name="5g6t9j.tif">
            <path class="cls-2"
                  d="M1030.6,21.7a3.71,3.71,0,0,0-.2.9V263.1c0,.3.1.6.1.9,0,.1.1.1.1.2l.1.1h103V230h-68.6c-.5-3.5-.3-69.8.2-71.7h59.4V125.8h-52.2a59.29,59.29,0,0,1-7.3-.1V54.5c2.8-.5,104.1-.4,105.8.1,0,.1.1.1.1.2V263.2a.9.9,0,0,0,.1.5c0,.1,0,.2.1.2s.1.1.1.2l.2.2c5.8.5,32.2.2,34.2-.3V54.1h39.6c.6-2.4.6-30.2,0-32.4Zm-25.1,242.6c.5-2.9.4-240.9-.1-242.6H972.2c-4.9,14.3-9.9,28.6-14.8,42.8-5,14.4-9.9,28.7-14.9,43.1-4.9,14.2-9.8,28.5-15.2,42.7C912,107.5,897.1,64.6,882.2,21.8c-3.3-.4-31.4-.3-33.1.2V264.3h34.3V132.9c0-5.4-.2-10.8.2-16.2.5.2.7.2.8.3,11.4,34.7,22.8,69.3,34.3,104.1h17.1a18,18,0,0,0,.8-2.1c7.6-22.9,15.1-45.8,22.7-68.7,3.5-10.5,7-21.1,10.4-31.6.2-.7.2-1.6,1.6-1.9V264.5C982.9,264.3,994.1,264.3,1005.5,264.3ZM710.2,143h0c0,21.4-.1,42.9,0,64.3a70.89,70.89,0,0,0,1,12.2c2.1,12.8,7.7,23.9,17.6,32.4,15.8,13.5,34.2,17.5,54.3,12.8,15.1-3.6,27.1-12,35.2-25.4,5.9-9.7,8.3-20.4,8.3-31.6q.15-64,0-128.1a68.66,68.66,0,0,0-1.4-14.3C822,48.8,813.3,36,798.7,27.6A59.09,59.09,0,0,0,755.2,21c-14.7,3.2-26.6,10.7-35.1,23.2a57.4,57.4,0,0,0-9.9,32.6C710.1,98.8,710.2,120.9,710.2,143ZM692,90.9a15.41,15.41,0,0,0,.2-1.9V78.2a75.48,75.48,0,0,0-1.7-15.7c-4.6-18.7-15.4-32.1-33.4-39.2-12-4.7-24.3-4.9-36.8-1.8a51.23,51.23,0,0,0-27.2,16.6c-9.2,10.6-13.3,23.2-13.3,37.1-.1,44.8,0,89.6,0,134.4a75.33,75.33,0,0,0,1.9,17.1c4.1,17.6,14.5,29.8,31.6,35.9a66.72,66.72,0,0,0,28.3,3.7c14.5-1.2,26.6-7.6,36.3-18.4A55.26,55.26,0,0,0,692,214.5c.4-5.7.2-11.3.3-17a13.66,13.66,0,0,0-.2-1.9H657.7V199c-.2,5.1.1,10.3-.7,15.3-1.2,8-5.8,13.8-13.6,16.5a23.32,23.32,0,0,1-11.1,1c-8.2-1-13.6-5.4-16.2-13.3a39.33,39.33,0,0,1-1.7-12.3V82.9a78.88,78.88,0,0,1,.5-8.4,31.5,31.5,0,0,1,2.8-10.4,16.44,16.44,0,0,1,10.4-8.9,27.21,27.21,0,0,1,8.5-1.1,19.5,19.5,0,0,1,16.2,8.8,26.39,26.39,0,0,1,4.8,14.4c.2,3.8.1,7.5.1,11.3a21.15,21.15,0,0,0,.2,2.4C669.2,90.9,680.5,90.9,692,90.9Zm83.5,298.8c1-.3,1.5-.4,2-.6a64.17,64.17,0,0,0,8.4-2.9,21.4,21.4,0,0,0,12.3-14.7,29.26,29.26,0,0,0,.7-9.3c-.8-8.2-4.7-14.3-12.1-18.1a29.82,29.82,0,0,0-4.6-1.9,51.26,51.26,0,0,0-15.6-2.3c-8-.1-16,0-24,0a11,11,0,0,0-1.8.2c-.5,3.9-.3,85.2.2,86.9h10V391.1a24.4,24.4,0,0,1,2.6-.1c2.8,0,5.6.1,8.4,0a3.84,3.84,0,0,1,3.6,1.8c7.3,9.9,14.7,19.8,22,29.7,1.1,1.5,2,3.6,3.6,4.4s3.9.3,5.9.3a15.32,15.32,0,0,0,4.2-.2C792.6,414.5,784.2,402.3,775.5,389.7Zm359.9-48.3c-.9-.3-1.8-.7-2.7-.9-11.4-2.9-22.8-3.1-34.1.5-12.3,3.9-21.4,11.7-26.2,23.9a53.6,53.6,0,0,0-1.6,36.4,35.58,35.58,0,0,0,19.8,22.9,47.88,47.88,0,0,0,9,3.1c10.7,2.5,21.4,2.1,32.1-.2,2.6-.5,5-1.4,7.7-2.1V382.9h-30v9c6.6.1,13.1-.1,19.5.1v26.2c-.7.2-1.2.4-1.7.5a61.4,61.4,0,0,1-23.4,0c-12-2.5-20-9.6-23.4-21.5a45.18,45.18,0,0,1-1.2-18.3c1.8-14,9.1-23.8,22.5-28.8,7.8-2.9,16-3,24.1-1.7,3.2.5,6.4,1.3,9.6,2C1135.4,347.2,1135.4,344.4,1135.4,341.4Zm-88.8,76.4h-44.4c-.5-3.3-.4-28.7.2-30.6h37.3c.1-3.2.2-6.2,0-9.3h-30.2c-2.4,0-4.9.1-7.3-.1-.5-4.8-.3-26.6.3-28.5h41.7v-9.2H991.7v86.8c3,.5,53.2.4,55-.1C1046.6,424,1046.6,421.1,1046.6,417.8Zm-148.9,9.3c-11.9-29.2-23.7-58.1-35.4-87h-8.9c-2.2,4.1-35.1,85.3-35.2,87.1h10.6c.3-.7.6-1.5.9-2.2,2.9-7.3,5.8-14.6,8.7-21.8.9-2.2.9-2.3,3.2-2.3h32.1c2.7,0,2.3-.1,3.2,2.3,2.9,7.2,5.7,14.4,8.6,21.6.3.8.7,1.6,1,2.4C890.2,427.1,893.7,427.1,897.7,427.1ZM720.1,340.2c-3-.5-66.9-.4-68.6.1v9h29.1V427H691V349.3h29.1Zm221.7,9.1h22c2.4,0,4.7.1,7.1-.1v-9.1H902.5a25.45,25.45,0,0,0,.2,9.2h28.9v77.8h10.3C941.8,401.2,941.8,375.4,941.8,349.3Zm291.3-9.4c-3.2,0-5.9.1-8.6,0a3.91,3.91,0,0,0-4,2.3q-11.25,19.05-22.6,37.9c-.5.8-1,1.6-1.6,2.6-.6-.9-1-1.4-1.4-2L1173,344.1c-.8-1.3-1.3-3-2.5-3.7s-2.9-.3-4.4-.3h-6.7c.8,1.4,1.4,2.3,1.9,3.3,9.5,15.6,19,31.3,28.6,46.9a7.89,7.89,0,0,1,1.3,4.5c-.1,10,0,20,0,30,0,.8.1,1.7.1,2.5h10.3V394.9a8.49,8.49,0,0,1,1.4-4.9q14.4-23.55,28.8-47.3A9.92,9.92,0,0,1,1233.1,339.9Z"
                  transform="translate(-87.3 -18.93)"/>
            <path class="cls-1"
                  d="M576.2,361.9c.3-1,.7-1.9.9-2.9,1.5-8.9,6.7-14.8,15-18.1a37.45,37.45,0,0,1,12.9-2.5,60.75,60.75,0,0,1,23.5,3.8c.7.3,1.4.6,2.2.9v9.2a7.58,7.58,0,0,1-1.6-.3,62.92,62.92,0,0,0-17.2-4.3,36.12,36.12,0,0,0-13.1.8c-9.9,2.8-12.2,10.8-10.8,17.9a10.07,10.07,0,0,0,5.1,6.9,36.41,36.41,0,0,0,7,3.1c5.2,1.6,10.5,2.8,15.7,4.4a43.41,43.41,0,0,1,8.6,3.6,18.94,18.94,0,0,1,9.7,15.4,29.31,29.31,0,0,1-.6,9.8c-1.6,6.7-5.7,11.5-11.7,14.7a39.15,39.15,0,0,1-14.9,4.2,64.34,64.34,0,0,1-25.8-2.7c-1.7-.5-3.3-1.3-4.9-1.9v-9.6c.7.3,1.5.6,2.2.9a57.71,57.71,0,0,0,22.4,4.4,33.12,33.12,0,0,0,13.6-2.4c5-2.2,8.1-6,8.7-11.4s-.1-10.5-7.3-14.2a28.91,28.91,0,0,0-5.8-2.2c-4.4-1.2-8.8-2.3-13.2-3.4-4.2-1.1-8.3-2.5-11.8-5.1a18.53,18.53,0,0,1-7.9-12.1c-.2-1-.6-1.9-.9-2.9C576.2,364.5,576.2,363.2,576.2,361.9Z"
                  transform="translate(-87.3 -18.93)"/>
            <path class="cls-1"
                  d="M1030.6,21.7h214.6c.5,2.1.6,30,0,32.4h-39.6V264c-2,.6-28.4.8-34.2.3l-.2-.2c-.1-.1-.1-.1-.1-.2s0-.2-.1-.2a.9.9,0,0,0-.1-.5V54.8c0-.1-.1-.1-.1-.2-1.7-.5-103-.6-105.8-.1v71.2a59.28,59.28,0,0,0,7.3.1h52.2v32.5h-59.4c-.5,1.9-.7,68.2-.2,71.7h68.6v34.3h-103l-.1-.1c-.1-.1-.1-.1-.1-.2,0-.3-.1-.6-.1-.9V22.6A2.47,2.47,0,0,0,1030.6,21.7Z"
                  transform="translate(-87.3 -18.93)"/>
            <path class="cls-1"
                  d="M1005.5,264.3H971.3V116.6c-1.4.4-1.4,1.3-1.6,1.9-3.5,10.5-7,21.1-10.4,31.6-7.6,22.9-15.1,45.8-22.7,68.7-.2.7-.5,1.3-.8,2.1H918.7q-17.1-52-34.3-104.1c0-.1-.3-.1-.8-.3-.4,5.5-.1,10.9-.2,16.2V264.1H849.1V21.8c1.8-.5,29.8-.6,33.1-.2,14.9,42.8,29.7,85.7,45.1,128.5,5.4-14.2,10.3-28.5,15.2-42.7,4.9-14.4,9.9-28.7,14.9-43.1s9.8-28.5,14.8-42.8h33.2C1005.9,23.5,1006,261.5,1005.5,264.3Z"
                  transform="translate(-87.3 -18.93)"/>
            <path class="cls-1"
                  d="M710.2,143c0-22.1-.1-44.1,0-66.2.1-11.8,3.1-22.8,9.9-32.6,8.6-12.5,20.5-20,35.1-23.2a59.57,59.57,0,0,1,43.5,6.6C813.3,36,822,48.8,825.2,65.2a76.17,76.17,0,0,1,1.4,14.3q.15,64.05,0,128.1c0,11.2-2.4,21.9-8.3,31.6-8.1,13.4-20.1,21.8-35.2,25.4-20.1,4.7-38.4.7-54.3-12.8-9.9-8.5-15.5-19.6-17.6-32.4a70.89,70.89,0,0,1-1-12.2c-.1-21.4,0-42.8,0-64.2Zm81.8.1V80.5a50.55,50.55,0,0,0-.2-5.5c-.8-10-7.1-17.6-16.8-20.1a26.92,26.92,0,0,0-9.8-.6c-10.1.9-17.5,7.3-19.7,17.1a36.57,36.57,0,0,0-.9,8.1c-.1,42.3,0,84.6,0,126.9a37.79,37.79,0,0,0,.5,6.7c1.7,9.5,7.2,15.7,16.6,18.1a29,29,0,0,0,9.3.7c10.1-.8,17.7-7.1,20-16.8a37,37,0,0,0,.9-8.8C792,185.2,792,164.2,792,143.1Z"
                  transform="translate(-87.3 -18.93)"/>
            <path class="cls-1"
                  d="M692,90.9H657.7a19.42,19.42,0,0,1-.2-2.4c0-3.8.1-7.5-.1-11.3a26.67,26.67,0,0,0-4.8-14.4A19.63,19.63,0,0,0,636.4,54a24.56,24.56,0,0,0-8.5,1.1A16.24,16.24,0,0,0,617.5,64a31.5,31.5,0,0,0-2.8,10.4,78.88,78.88,0,0,0-.5,8.4V206.1a39.33,39.33,0,0,0,1.7,12.3c2.5,7.9,8,12.3,16.2,13.3a24.52,24.52,0,0,0,11.1-1c7.9-2.7,12.4-8.5,13.6-16.5.8-5,.5-10.2.7-15.3v-3.4h34.4a11.08,11.08,0,0,1,.2,1.9c-.1,5.7.1,11.4-.3,17a54.68,54.68,0,0,1-14.1,33.4c-9.6,10.9-21.7,17.2-36.3,18.4a66.31,66.31,0,0,1-28.3-3.7c-17.1-6.2-27.5-18.3-31.6-35.9a76,76,0,0,1-1.9-17.1c0-44.8-.1-89.6,0-134.4,0-13.9,4.1-26.5,13.3-37.1a52.89,52.89,0,0,1,27.2-16.6c12.4-3.1,24.8-2.9,36.8,1.8,18,7.1,28.8,20.6,33.4,39.2A69.28,69.28,0,0,1,692,78.1c.1,3.6,0,7.2,0,10.8A4.5,4.5,0,0,1,692,90.9Z"
                  transform="translate(-87.3 -18.93)"/>
            <path class="cls-1"
                  d="M775.5,389.7c8.7,12.6,17.1,24.8,25.7,37.2a15.32,15.32,0,0,1-4.2.2c-2,0-4.3.5-5.9-.3s-2.4-2.9-3.6-4.4c-7.4-9.9-14.7-19.7-22-29.7a3.74,3.74,0,0,0-3.6-1.8c-2.8.1-5.6,0-8.4,0-.8,0-1.6.1-2.6.1v35.9h-10c-.5-1.7-.7-83.1-.2-86.9a11,11,0,0,1,1.8-.2c8,0,16-.1,24,0a51.72,51.72,0,0,1,15.6,2.3,31.65,31.65,0,0,1,4.6,1.9c7.3,3.8,11.3,9.9,12.1,18.1a26.64,26.64,0,0,1-.7,9.3,21.48,21.48,0,0,1-12.3,14.7c-2.7,1.2-5.6,1.9-8.4,2.9A6.34,6.34,0,0,1,775.5,389.7Zm-24.4-8.3c4,.4,17.5.3,20.9-.4a31.13,31.13,0,0,0,7.5-2.3c6.1-2.8,8.9-8.2,8.4-15.5-.4-5.9-3.9-10.4-10.1-12.3a41.1,41.1,0,0,0-9.2-1.5c-5.2-.3-10.4-.1-15.6-.1a13.66,13.66,0,0,0-1.9.2C751.1,360.2,751.1,370.8,751.1,381.4Z"
                  transform="translate(-87.3 -18.93)"/>
            <path class="cls-1"
                  d="M1135.4,341.4v8.8c-3.3-.7-6.4-1.5-9.6-2-8.2-1.3-16.3-1.2-24.1,1.7-13.3,5-20.7,14.7-22.5,28.8a45.18,45.18,0,0,0,1.2,18.3c3.3,11.9,11.4,19,23.4,21.5a61.4,61.4,0,0,0,23.4,0,15.42,15.42,0,0,0,1.7-.5V391.8c-6.5-.2-12.9,0-19.5-.1v-9h30c.1,13.9,0,27.9,0,42.1-2.6.7-5.1,1.5-7.7,2.1-10.7,2.3-21.4,2.8-32.1.2a45.54,45.54,0,0,1-9-3.1,35.39,35.39,0,0,1-19.8-22.9,54.81,54.81,0,0,1,1.6-36.4c4.9-12.1,13.9-19.9,26.2-23.9,11.3-3.6,22.7-3.3,34.1-.5C1133.6,340.6,1134.5,341,1135.4,341.4Z"
                  transform="translate(-87.3 -18.93)"/>
            <path class="cls-1"
                  d="M1046.6,417.8v9c-1.8.5-52,.6-55,.1V340.1h52.5v9.2h-41.7c-.6,1.9-.8,23.6-.3,28.5,2.4.2,4.8.1,7.3.1h30.2a72.16,72.16,0,0,1,0,9.3h-37.3c-.5,2-.7,27.3-.2,30.6Z"
                  transform="translate(-87.3 -18.93)"/>
            <path class="cls-1"
                  d="M897.7,427.1H886.5c-.3-.8-.7-1.6-1-2.4-2.9-7.2-5.7-14.4-8.6-21.6-.9-2.3-.6-2.3-3.2-2.3H841.6c-2.3,0-2.3,0-3.2,2.3-2.9,7.3-5.8,14.6-8.7,21.8-.3.7-.6,1.5-.9,2.2H818.2c.2-1.8,33-83,35.2-87.1h8.9C874,369,885.8,397.9,897.7,427.1ZM872,391.3c-4.8-12.7-9.5-25.2-14.4-38.2-4.9,12.9-9.7,25.5-14.6,38.2Z"
                  transform="translate(-87.3 -18.93)"/>
            <path class="cls-1" d="M720.1,340.2v9H691v77.7H680.6V349.2H651.5v-9C653.2,339.8,717.1,339.7,720.1,340.2Z"
                  transform="translate(-87.3 -18.93)"/>
            <path class="cls-1"
                  d="M941.8,349.3v77.8H931.5V349.3c-9.8-.1-19.4,0-28.9,0-.6-1.9-.6-6.6-.2-9.2h68.4v9.1c-2.3.2-4.7.1-7.1.1H941.8Z"
                  transform="translate(-87.3 -18.93)"/>
            <path class="cls-1"
                  d="M1233.1,339.9c-.6,1.1-1,1.8-1.4,2.4q-14.4,23.7-28.8,47.3a8.71,8.71,0,0,0-1.4,4.9c.1,9.9,0,19.8,0,29.7v2.7h-10.3c0-.8-.1-1.7-.1-2.5v-30a7.89,7.89,0,0,0-1.3-4.5c-9.5-15.6-19.1-31.2-28.6-46.9-.6-.9-1.1-1.9-1.9-3.3h6.7c1.5,0,3.3-.3,4.4.3s1.7,2.4,2.5,3.7l21.9,36.6c.4.6.8,1.2,1.4,2,.6-1,1.2-1.8,1.6-2.6,7.5-12.6,15.1-25.2,22.6-37.9,1-1.6,2-2.4,4-2.3C1227.1,340.1,1229.9,339.9,1233.1,339.9Z"
                  transform="translate(-87.3 -18.93)"/>
        </g>
    </g>
</svg>